<svg width="12" height="21" viewBox="0 0 12 21" fill="none" xmlns="http://www.w3.org/2000/svg">
<path d="M8.53798 9.5273L4.12946 8.2374C3.61921 8.09045 3.26408 7.61286 3.26408 7.0822C3.26408 6.41684 3.8029 5.87802 4.46826 5.87802H7.1746C7.6726 5.87802 8.16244 6.02906 8.57063 6.30663C8.81963 6.47399 9.15435 6.43317 9.36661 6.22499L10.7871 4.83712C11.077 4.55547 11.0361 4.08604 10.7137 3.83704C9.71358 3.05331 8.4645 2.61654 7.18277 2.61246V0.653114C7.18277 0.293901 6.88886 0 6.52965 0H5.22342C4.86421 0 4.57031 0.293901 4.57031 0.653114V2.61246H4.46826C1.86805 2.61246 -0.221913 4.84529 0.0189227 7.49448C0.190365 9.37627 1.62722 10.907 3.43961 11.4377L7.62362 12.6622C8.13386 12.8133 8.48899 13.2868 8.48899 13.8174C8.48899 14.4828 7.95017 15.0216 7.28481 15.0216H4.57847C4.08047 15.0216 3.59064 14.8706 3.18244 14.593C2.93344 14.4257 2.59872 14.4665 2.38646 14.6747L0.965938 16.0625C0.676118 16.3442 0.716938 16.8136 1.03941 17.0626C2.03949 17.8463 3.28857 18.2831 4.57031 18.2872V20.2465C4.57031 20.6057 4.86421 20.8996 5.22342 20.8996H6.52965C6.88886 20.8996 7.18277 20.6057 7.18277 20.2465V18.279C9.08496 18.2423 10.8688 17.1116 11.4974 15.3114C12.375 12.7969 10.9014 10.2171 8.53798 9.5273Z" fill="white"/>
</svg>
