<svg width="19" height="19" viewBox="0 0 19 19" fill="none" xmlns="http://www.w3.org/2000/svg">
<path d="M15.5029 2.76455C14.6669 1.88478 13.671 1.18724 12.5735 0.712603C11.4759 0.237969 10.2986 -0.0042561 9.11025 5.6591e-05C4.13107 5.6591e-05 0.0729551 4.22754 0.0729551 9.41453C0.0729551 11.077 0.492446 12.692 1.27671 14.117L0 19L4.78767 17.689C6.10998 18.4395 7.59643 18.8385 9.11025 18.8385C14.0894 18.8385 18.1475 14.611 18.1475 9.42403C18.1475 6.90654 17.2082 4.54104 15.5029 2.76455ZM9.11025 17.2425C7.76058 17.2425 6.43827 16.8625 5.28011 16.15L5.00653 15.979L2.16129 16.758L2.9182 13.87L2.73581 13.5755C1.98597 12.3281 1.58781 10.8863 1.58677 9.41453C1.58677 5.10154 4.96094 1.58655 9.10113 1.58655C11.1074 1.58655 12.9951 2.40355 14.4086 3.88555C15.1085 4.61131 15.6631 5.47457 16.0404 6.42529C16.4177 7.37601 16.61 8.39528 16.6064 9.42403C16.6246 13.737 13.2504 17.2425 9.11025 17.2425ZM13.2322 11.3905C13.0042 11.2765 11.8917 10.7065 11.691 10.621C11.4813 10.545 11.3354 10.507 11.1803 10.735C11.0253 10.9725 10.5967 11.5045 10.469 11.6565C10.3414 11.818 10.2046 11.837 9.97659 11.7135C9.7486 11.5995 9.01905 11.343 8.16183 10.545C7.487 9.91803 7.04015 9.14853 6.90336 8.91103C6.77569 8.67353 6.88512 8.55003 7.00367 8.42653C7.10399 8.32203 7.23166 8.15103 7.34109 8.01803C7.45052 7.88503 7.49612 7.78053 7.56907 7.62853C7.64203 7.46703 7.60555 7.33404 7.55084 7.22004C7.49612 7.10604 7.04015 5.94704 6.85776 5.47204C6.67538 5.01604 6.48387 5.07304 6.34708 5.06354H5.90935C5.75432 5.06354 5.51722 5.12054 5.30747 5.35804C5.10684 5.59554 4.52321 6.16554 4.52321 7.32453C4.52321 8.48353 5.33483 9.60453 5.44426 9.75653C5.55369 9.91803 7.04015 12.293 9.30175 13.3095C9.8398 13.5565 10.2593 13.699 10.5876 13.8035C11.1256 13.984 11.6181 13.9555 12.0102 13.8985C12.4479 13.832 13.3508 13.3285 13.5331 12.7775C13.7246 12.2265 13.7246 11.761 13.6608 11.6565C13.597 11.552 13.4602 11.5045 13.2322 11.3905Z" fill="white"/>
</svg>
